<?xml version="1.0" encoding="UTF-8" standalone="no"?>
<!-- Created with Inkscape (https://www.inkscape.org/) -->
<!-- ClipArt by Arvin61r58 (https://openclipart.org/user-detail/Arvin61r58) -->
<svg
   xmlns:dc="http://purl.org/dc/elements/1.1/"
   xmlns:cc="http://creativecommons.org/ns#"
   xmlns:rdf="http://www.w3.org/1999/02/22-rdf-syntax-ns#"
   xmlns:svg="http://www.w3.org/2000/svg"
   xmlns="http://www.w3.org/2000/svg"
   id="svg1871"
   version="1.1"
   viewBox="0 0 116.94585 18.961838"
   height="71.666786"
   width="442.00006">
  <title
     id="title8026">Decorative Header 9</title>
  <defs
     id="defs1865" />
  <metadata
     id="metadata1868">
    <rdf:RDF>
      <cc:Work
         rdf:about="">
        <dc:format>image/svg+xml</dc:format>
        <dc:type
           rdf:resource="http://purl.org/dc/dcmitype/StillImage" />
        <dc:title>Decorative Header 9</dc:title>
        <cc:license
           rdf:resource="http://creativecommons.org/publicdomain/zero/1.0/" />
        <dc:description>Decorative page divider, footer, header, etc.</dc:description>
        <dc:creator>
          <cc:Agent>
            <dc:title>Arvin61r58</dc:title>
          </cc:Agent>
        </dc:creator>
        <dc:publisher>
          <cc:Agent>
            <dc:title>Openclipart.org</dc:title>
          </cc:Agent>
        </dc:publisher>
        <dc:identifier>https://openclipart.org/</dc:identifier>
        <dc:source>https://openclipart.org/user-detail/Arvin61r58</dc:source>
        <dc:subject>
          <rdf:Bag>
            <rdf:li>divider</rdf:li>
            <rdf:li>DTP</rdf:li>
            <rdf:li>flourish</rdf:li>
            <rdf:li>footer</rdf:li>
            <rdf:li>header</rdf:li>
            <rdf:li>page</rdf:li>
            <rdf:li>rule</rdf:li>
          </rdf:Bag>
        </dc:subject>
      </cc:Work>
      <cc:License
         rdf:about="http://creativecommons.org/publicdomain/zero/1.0/">
        <cc:permits
           rdf:resource="http://creativecommons.org/ns#Reproduction" />
        <cc:permits
           rdf:resource="http://creativecommons.org/ns#Distribution" />
        <cc:permits
           rdf:resource="http://creativecommons.org/ns#DerivativeWorks" />
      </cc:License>
    </rdf:RDF>
  </metadata>
  <g
     transform="translate(-46.527079,-139.01908)"
     id="layer1">
    <g
       id="g7445">
      <title
         id="title7447">Decorative Header 9  --  by Arvin61r58</title>
      <path
         style="fill:#000000;stroke-width:0.99999988"
         d="m 104.41477,147.26465 c -0.0367,0.23328 -0.23991,1.6151 -0.13005,2.80059 -0.2621,0.44566 -0.49176,0.87016 -0.12452,1.26161 0.55806,0.52126 1.31798,0.37549 1.67961,0 0.36723,-0.39145 0.13757,-0.81595 -0.12453,-1.26161 0.10986,-1.18549 -0.0933,-2.56731 -0.13005,-2.80059 0.48398,-1.43769 2.26811,-3.36501 -0.6262,-3.36501 -2.8943,0 -1.02823,1.92732 -0.54424,3.36501 z m -39.535762,-3.35746 c -0.864182,0.002 -1.742746,0.0319 -2.637692,0.0888 -3.520557,0.25499 -7.094248,0.24883 -10.666654,1.67134 -1.368,0.98006 -3.807315,2.27293 -3.722512,4.02123 1.425892,1.94529 3.482497,0.16216 4.454525,-1.61274 0.972026,-1.77489 3.688789,-2.39541 5.635274,-3.10124 3.116331,-0.494 6.32411,-0.29279 9.479467,-0.30773 2.062365,-0.13092 4.0129,0.41697 6.01319,0.63737 0.153959,2.9e-4 9.279176,1.85199 7.797837,2.60936 -4.16882,-0.91542 -8.544145,-1.8516 -13.121506,-0.89876 -1.486389,0.39038 -4.835378,2.25695 -2.093027,3.43537 1.760741,0.65028 3.385385,-0.73234 4.091415,-2.24947 1.250811,-1.41487 7.964483,-0.0938 11.236426,0.72943 1.799709,0.69952 4.046591,-0.0652 5.680988,1.2033 -0.577345,1.0145 -7.554632,-1.7062 -10.007394,-0.35603 -3.098678,0.54918 -0.654669,4.02573 1.377109,2.33381 1.299686,-1.72249 3.692755,-1.88108 5.586346,-1.20329 4.143246,0.47367 8.150765,1.43763 11.780446,2.01128 2.387706,0.36996 5.238974,0.38203 8.046344,0.14162 1.11484,-1.1887 -1.48547,-1.53941 -3.00145,-2.82632 -1.515974,-1.28691 -0.0333,-3.71845 1.92629,-3.63173 0.0539,-1.2792 -3.204819,-0.81659 -4.161597,1.08931 -0.956776,1.90592 2.663927,3.0361 1.847737,4.3071 -1.457418,-1.03774 -3.491707,-2.40352 -2.698211,-4.67149 0.215749,-1.97087 3.193691,-2.19669 3.776591,-3.18042 -1.878407,-0.44163 -3.869404,0.18163 -5.135674,1.98229 -1.266269,1.80067 0.524849,3.60106 1.405441,5.08997 0.724029,1.39178 -0.320702,0.39999 -0.895538,0.0412 -1.678123,-0.76462 -3.374546,-1.66788 -5.019149,-2.71044 -1.903322,-1.76739 1.309759,-1.97548 2.440686,-2.31256 1.907871,-1.29431 -1.176864,-0.92933 -1.858684,-0.30323 -1.693704,-0.11662 -3.594553,-1.21212 -5.267011,-0.3438 1.932014,2.34445 4.618609,3.9507 7.280207,5.34942 0.755258,2.27729 -6.155942,-2.08596 -6.94929,-2.29904 -7.266924,-2.39844 -14.267161,-4.7641 -22.62093,-4.73394 z m 80.241982,0 c -8.35376,-0.0301 -15.35401,2.3355 -22.62094,4.73395 -2.04936,0.48609 -3.30778,2.58463 -5.53226,2.59648 -0.74852,0.12511 -2.85107,1.11274 -1.41702,-0.29745 2.66159,-1.39871 5.34819,-3.00496 7.28021,-5.34941 -1.67246,-0.86832 -3.57332,0.22714 -5.26702,0.34379 -0.68182,-0.62609 -3.76655,-0.99107 -1.85868,0.30323 1.13092,0.33709 4.344,0.54518 2.44068,2.31257 -1.81839,0.80604 -6.85908,4.41059 -5.91468,2.66925 0.80261,-1.44088 2.67171,-3.28931 1.40544,-5.08997 -1.26627,-1.80066 -3.25727,-2.42393 -5.13568,-1.9823 0.5829,0.98373 3.56085,1.20956 3.77659,3.18043 0.7935,2.26797 -1.24079,3.63374 -2.69821,4.67149 -0.81619,-1.27101 2.80451,-2.40119 1.84773,-4.30711 -0.95677,-1.90589 -4.21543,-2.3685 -4.16158,-1.08932 1.95961,-0.0867 3.44226,2.34483 1.92628,3.63174 -1.51598,1.28691 -4.11628,1.63762 -3.00145,2.82633 2.80737,0.24041 5.65864,0.22833 8.04635,-0.14163 3.95426,-1.04156 8.17802,-1.13909 11.78045,-2.01128 1.89358,-0.6778 4.28665,-0.51919 5.58634,1.20329 2.03178,1.69191 4.47578,-1.78463 1.37711,-2.33381 -2.45276,-1.35016 -9.43005,1.37054 -10.00739,0.35603 1.6344,-1.26842 3.88127,-0.50378 5.68098,-1.2033 3.27194,-0.82321 9.98562,-2.14429 11.23643,-0.72942 0.70603,1.51713 2.33068,2.89974 4.09141,2.24946 2.74236,-1.17842 -0.60663,-3.04498 -2.09302,-3.43536 -4.57736,-0.95285 -8.95268,-0.0167 -13.12151,0.89875 -1.48134,-0.75736 7.64388,-2.60907 7.79784,-2.60936 2.00029,-0.2204 3.95083,-0.76829 6.01319,-0.63737 3.15535,0.015 6.36314,-0.18627 9.47947,0.30774 1.94648,0.70582 4.66325,1.32633 5.63528,3.10123 0.97202,1.77491 3.02863,3.55804 4.45452,1.61275 0.0849,-1.7483 -2.35449,-3.04118 -3.72252,-4.02125 -3.57238,-1.42249 -7.14609,-1.41634 -10.66666,-1.67133 -0.89493,-0.0571 -1.7735,-0.0857 -2.63768,-0.0888 z m -42.80954,4.0412 c -0.81414,-0.0421 -2.12089,1.2365 -0.80477,2.03444 1.15861,1.46483 0.27639,-1.43855 1.33913,-1.48527 -0.0466,-0.3743 -0.26299,-0.53511 -0.53436,-0.54917 z m 5.3771,0 c -0.27138,0.0141 -0.48777,0.17487 -0.53436,0.54917 1.06274,0.0467 0.18051,2.9501 1.33912,1.48527 1.31613,-0.79794 0.009,-2.0766 -0.80476,-2.03444 z"
         id="path853" />
      <g
         id="g4350"
         transform="translate(27.518393,4.001666)">
        <path
           style="fill:#000000;fill-opacity:1;fill-rule:evenodd;stroke:none;stroke-width:0.26458332"
           id="path2597"
           d="m 123.9973,146.07659 c 0.0752,-0.70288 -0.43043,-1.3312 -1.13325,-1.40693 -0.7029,-0.0752 -1.33121,0.43043 -1.40697,1.13322 -0.0762,0.70277 0.42977,1.33738 1.13256,1.41313 0.70275,0.0762 1.33186,-0.43658 1.40761,-1.1394 z m -1.90747,-2.5569 c 0.0572,-0.52706 -0.32558,-1.0018 -0.85277,-1.05854 -0.52706,-0.0572 -1.00182,0.32559 -1.05862,0.85269 -0.0572,0.52707 0.32627,0.99564 0.85338,1.05241 0.52708,0.0572 1.00115,-0.31943 1.05796,-0.84652 z m -2.28867,-1.45033 c 0.0424,-0.39536 -0.24283,-0.74964 -0.63809,-0.7923 -0.39537,-0.0424 -0.74965,0.24284 -0.79229,0.63812 -0.0424,0.39537 0.24283,0.74966 0.6381,0.79231 0.39534,0.0424 0.74965,-0.24284 0.79228,-0.63812 z m -2.20802,-0.057 c 0.0315,-0.29655 -0.18207,-0.56224 -0.47861,-0.5942 -0.29655,-0.0315 -0.56225,0.18215 -0.59422,0.47859 -0.0315,0.29657 0.18215,0.56224 0.47861,0.5942 0.29656,0.0315 0.56226,-0.18206 0.59421,-0.47859 z" />
        <path
           d="m 30.965919,146.07659 c -0.0752,-0.70288 0.43043,-1.3312 1.13325,-1.40693 0.702897,-0.0752 1.331207,0.43043 1.406967,1.13322 0.0762,0.70277 -0.42977,1.33738 -1.132557,1.41313 -0.70275,0.0762 -1.33186,-0.43658 -1.40761,-1.1394 z m 1.907467,-2.5569 c -0.0572,-0.52706 0.32558,-1.0018 0.85277,-1.05854 0.52706,-0.0572 1.00182,0.32559 1.05862,0.85269 0.0572,0.52707 -0.32627,0.99564 -0.85338,1.05241 -0.52708,0.0572 -1.00115,-0.31943 -1.05796,-0.84652 z m 2.28867,-1.45033 c -0.0424,-0.39536 0.24283,-0.74964 0.63809,-0.7923 0.39537,-0.0424 0.74965,0.24284 0.79229,0.63812 0.0424,0.39537 -0.24283,0.74966 -0.6381,0.79231 -0.39534,0.0424 -0.74965,-0.24284 -0.79228,-0.63812 z m 2.20802,-0.057 c -0.0315,-0.29655 0.18207,-0.56224 0.478607,-0.5942 0.29655,-0.0315 0.56225,0.18215 0.59422,0.47859 0.0315,0.29657 -0.18215,0.56224 -0.47861,0.5942 -0.296557,0.0315 -0.562257,-0.18206 -0.594207,-0.47859 z"
           id="path2599"
           style="fill:#000000;fill-opacity:1;fill-rule:evenodd;stroke:none;stroke-width:0.26458332" />
      </g>
      <g
         id="g2613"
         transform="translate(27.751463,4.001666)">
        <path
           d="m 74.463668,139.6381 c 0.55683,0.3643 1.34069,-0.28278 0.93015,-0.94071 -0.65932,-1.05658 -2.1702,-1.19719 -3.34346,-1.09109 -1.173165,0.10905 -2.244273,0.70309 -2.936141,1.57235 v 0 c -0.532329,0.67006 -0.83519,1.49095 -0.875061,2.30668 0.161631,-0.80053 0.576088,-1.52855 1.146074,-2.05756 v 0 c 0.737886,-0.68607 1.746475,-1.03488 2.685328,-0.9762 v 0 c 0.93878,0.0557 1.662,0.70812 2.39315,1.18656 z"
           id="path1755"
           style="fill:#000000;fill-rule:evenodd;stroke:none;stroke-width:0.26458332" />
        <path
           style="fill:#000000;fill-rule:evenodd;stroke:none;stroke-width:0.26458332"
           id="path2609"
           d="m 80.033411,139.6381 c -0.55683,0.3643 -1.34069,-0.28278 -0.93015,-0.94071 0.65932,-1.05658 2.1702,-1.19719 3.34346,-1.09109 1.173165,0.10905 2.244273,0.70309 2.936141,1.57235 v 0 c 0.532329,0.67006 0.83519,1.49095 0.875061,2.30668 -0.161631,-0.80053 -0.576088,-1.52855 -1.146074,-2.05756 v 0 c -0.737886,-0.68607 -1.746475,-1.03488 -2.685328,-0.9762 v 0 c -0.93878,0.0557 -1.662,0.70812 -2.39315,1.18656 z" />
      </g>
      <g
         id="g2619"
         transform="translate(27.783989,4.001666)">
        <path
           id="path870"
           d="m 57.861138,143.13107 c 0.41759,-0.0324 0.979941,-0.25571 1.013867,-0.40273 0.06399,-0.27822 -0.439806,-0.90926 -1.054052,-1.31973 -1.64553,-0.99075 -2.814474,-1.42898 -5.209941,-2.05531 -2.577723,-0.69231 -4.865027,-0.8065 -6.579649,-0.89449 -1.426985,-0.0301 -2.501083,0.15867 -3.594415,0.20031 -0.950943,0.0354 -1.521565,0.0201 -2.03401,-0.0548 -1.651832,-0.24131 -2.575469,-0.55272 -3.091398,-1.04237 -0.50053,-0.47501 -0.222805,-0.7525 0.830051,-0.82935 0.683939,-0.0499 1.381597,0.0204 2.386639,0.2406 0.892269,0.19582 1.358137,0.36858 1.329827,0.4943 -0.02845,0.12632 0.384626,0.28674 0.838579,0.32566 1.061046,-0.0673 -0.353806,-0.76696 -1.413222,-1.03799 -1.782469,-0.43882 -3.522381,-0.47248 -4.368915,-0.36016 -1.470363,0.19984 -1.552129,0.89261 -0.184382,1.56309 3.473265,1.62447 6.735901,1.619 9.533329,1.56274 3.579648,-0.24015 9.965367,1.01359 11.474738,2.82161 0.137803,0.16509 0.100486,0.25697 -0.08938,0.39097 -0.402695,0.28427 -0.320144,0.43885 0.212334,0.39765 z"
           style="fill:#000000;stroke-width:0.99999988" />
        <path
           style="fill:#000000;stroke-width:0.99999988"
           d="m 96.570882,143.13107 c -0.41759,-0.0324 -0.979941,-0.25571 -1.013867,-0.40273 -0.06399,-0.27822 0.439806,-0.90926 1.054052,-1.31973 1.64553,-0.99075 2.814474,-1.42898 5.209943,-2.05531 2.57772,-0.69231 4.86503,-0.8065 6.57965,-0.89449 1.42698,-0.0301 2.50109,0.15867 3.59442,0.20031 0.95094,0.0354 1.52156,0.0201 2.03401,-0.0548 1.65183,-0.24131 2.57547,-0.55272 3.0914,-1.04237 0.50053,-0.47501 0.2228,-0.7525 -0.83005,-0.82935 -0.68394,-0.0499 -1.3816,0.0204 -2.38664,0.2406 -0.89227,0.19582 -1.35814,0.36858 -1.32983,0.4943 0.0285,0.12632 -0.38463,0.28674 -0.83858,0.32566 -1.06105,-0.0673 0.35381,-0.76696 1.41322,-1.03799 1.78247,-0.43882 3.52239,-0.47248 4.36892,-0.36016 1.47036,0.19984 1.55213,0.89261 0.18438,1.56309 -3.47327,1.62447 -6.7359,1.619 -9.53333,1.56274 -3.57965,-0.24015 -9.965373,1.01359 -11.474744,2.82161 -0.137803,0.16509 -0.100486,0.25697 0.08938,0.39097 0.402695,0.28427 0.320144,0.43885 -0.212334,0.39765 z"
           id="path2615" />
      </g>
      <g
         id="g2625"
         transform="translate(27.275018,3.8202374)">
        <path
           style="fill:#000000;fill-rule:evenodd;stroke:none;stroke-width:0.26458332"
           id="path1732"
           d="m 72.155431,150.35195 c -0.475163,-0.46582 -1.370096,0.0161 -1.095623,0.74144 0.440792,1.1648 1.895314,1.59713 3.066749,1.72169 1.17193,0.12164 2.338266,-0.2523 3.186255,-0.97008 v 0 c 0.65269,-0.55348 1.109703,-1.29963 1.307765,-2.09195 -0.314525,0.7537 -0.862897,1.387 -1.525044,1.79479 v 0 c -0.857427,0.52914 -1.914664,0.67469 -2.824079,0.43422 v 0 c -0.909917,-0.23758 -1.492162,-1.01839 -2.116051,-1.63013 z" />
        <path
           d="m 83.294538,150.35195 c 0.475163,-0.46582 1.370096,0.0161 1.095623,0.74144 -0.440792,1.1648 -1.895314,1.59713 -3.066749,1.72169 -1.17193,0.12164 -2.338266,-0.2523 -3.186255,-0.97008 v 0 c -0.65269,-0.55348 -1.109703,-1.29963 -1.307765,-2.09195 0.314525,0.7537 0.862897,1.387 1.525044,1.79479 v 0 c 0.857427,0.52914 1.914664,0.67469 2.824079,0.43422 v 0 c 0.909917,-0.23758 1.492162,-1.01839 2.116051,-1.63013 z"
           id="path2621"
           style="fill:#000000;fill-rule:evenodd;stroke:none;stroke-width:0.26458332" />
      </g>
      <g
         id="g4356"
         transform="translate(27.806355,4.001666)">
        <path
           d="m 43.95131,147.75157 c -0.644069,1.60545 -3.465841,-0.82194 -0.678537,-2.88764 1.701877,-1.26128 6.456756,0.44331 6.456756,0.44331 -3.167464,-0.56178 -5.414273,1.53714 -5.778219,2.44433 z"
           id="path4746"
           style="fill:#000000;fill-rule:evenodd;stroke:none;stroke-width:0.19843748" />
        <path
           style="fill:#000000;fill-rule:evenodd;stroke:none;stroke-width:0.19843748"
           id="path4352"
           d="m 110.43598,147.75157 c 0.64407,1.60545 3.46585,-0.82194 0.67854,-2.88764 -1.70188,-1.26128 -6.45676,0.44331 -6.45676,0.44331 3.16747,-0.56178 5.41428,1.53714 5.77822,2.44433 z" />
      </g>
      <g
         id="g4385"
         transform="translate(28.369051,4.001666)">
        <path
           d="m 40.889205,149.41351 c -0.65551,-0.36106 -1.39083,1.48617 -0.63127,1.89804 3.18434,1.72671 6.47497,0.92686 9.49598,-0.24746 0,0 0,0 0,0 1.0984,-0.42874 2.116951,-0.97506 3.142631,-1.40946 1.02589,-0.42928 2.07207,-0.76599 3.129811,-0.74643 1.868621,0.0243 3.774627,1.22174 4.912523,3.19077 -0.973162,-2.09788 -2.823188,-3.62491 -4.875088,-3.90863 -1.154276,-0.15425 -2.318626,0.0566 -3.421976,0.38344 -1.10359,0.32174 -2.163191,0.74208 -3.207421,1.01037 v 0 c -2.8642,0.74024 -6.18323,1.13035 -8.54519,-0.17064 z"
           id="path4358"
           style="fill:#000000;fill-rule:evenodd;stroke:none;stroke-width:0.26458332" />
        <path
           style="fill:#000000;fill-rule:evenodd;stroke:none;stroke-width:0.26458332"
           id="path4381"
           d="m 112.37269,149.41351 c 0.65552,-0.36106 1.39084,1.48617 0.63128,1.89804 -3.18436,1.72671 -6.47501,0.92686 -9.49604,-0.24746 0,0 0,0 0,0 -1.0984,-0.42874 -2.11696,-0.97506 -3.14265,-1.40946 -1.025885,-0.42928 -2.072065,-0.76599 -3.129806,-0.74643 -1.868621,0.0243 -3.774627,1.22174 -4.912523,3.19077 0.973162,-2.09788 2.823188,-3.62491 4.875088,-3.90863 1.154276,-0.15425 2.318626,0.0566 3.421981,0.38344 1.10359,0.32174 2.1632,0.74208 3.20744,1.01037 v 0 c 2.86421,0.74024 6.18326,1.13035 8.54523,-0.17064 z" />
      </g>
      <g
         id="g7375"
         transform="translate(27.582108,3.4724994)">
        <path
           id="path6624"
           d="m 95.928251,140.98841 c -0.14429,0.39108 -0.192125,0.42711 -0.428802,0.32283 -0.223507,-0.0985 -0.232951,-0.18813 -0.0587,-0.55722 0.263657,-0.55841 0.01067,-1.10852 -0.592967,-1.28933 -0.505969,-0.15156 -1.193323,0.11372 -1.048105,0.40451 0.152275,0.30494 -0.242798,0.86243 -0.812908,1.14713 -0.744383,0.37173 -1.726221,0.0112 -2.486316,-0.91306 -0.655508,-0.79705 -1.297351,-1.22518 -1.769325,-1.18015 -0.268383,0.0256 -0.312086,-0.007 -0.19036,-0.13897 0.34673,-0.37787 1.228719,-1.03314 1.737886,-1.29117 0.642603,-0.32582 2.22753,-0.34526 2.925482,-0.0362 0.636572,0.28194 1.018912,1.04225 0.762465,1.51574 -0.187284,0.34559 -0.186275,0.34622 0.222534,0.14207 0.866649,-0.43279 2.100057,0.89589 1.73931,1.87366 z"
           style="fill:#000000;stroke-width:1" />
        <path
           style="fill:#000000;stroke-width:1"
           d="m 58.907539,140.98841 c 0.14429,0.39108 0.192125,0.42711 0.428802,0.32283 0.223507,-0.0985 0.232951,-0.18813 0.0587,-0.55722 -0.263657,-0.55841 -0.01067,-1.10852 0.592967,-1.28933 0.505969,-0.15156 1.193323,0.11372 1.048105,0.40451 -0.152275,0.30494 0.242798,0.86243 0.812908,1.14713 0.744383,0.37173 1.726221,0.0112 2.486316,-0.91306 0.655508,-0.79705 1.297351,-1.22518 1.769325,-1.18015 0.268383,0.0256 0.312086,-0.007 0.19036,-0.13897 -0.34673,-0.37787 -1.228719,-1.03314 -1.737886,-1.29117 -0.642603,-0.32582 -2.22753,-0.34526 -2.925482,-0.0362 -0.636572,0.28194 -1.018912,1.04225 -0.762465,1.51574 0.187284,0.34559 0.186275,0.34622 -0.222534,0.14207 -0.866649,-0.43279 -2.100057,0.89589 -1.73931,1.87366 z"
           id="path7371" />
      </g>
    </g>
  </g>
</svg>
